<mxfile host="drawio-plugin" modified="2025-10-16T14:08:03.687Z" agent="Mozilla/5.0 (Windows NT 10.0; Win64; x64) AppleWebKit/537.36 (KHTML, like Gecko) Chrome/122.0.0.0 Safari/537.36" etag="eiqyGcz3GEUd9urp7nc6" version="22.1.22" type="embed">
  <diagram name="Schema 5: Final with CDN" id="schema5">
    <mxGraphModel dx="1030" dy="351" grid="1" gridSize="10" guides="1" tooltips="1" connect="1" arrows="1" fold="1" page="1" pageScale="1" pageWidth="2000" pageHeight="1200" math="0" shadow="0">
      <root>
        <mxCell id="0" />
        <mxCell id="1" parent="0" />
        <mxCell id="cdn_eu" value="CDN&#xa;Европа" style="ellipse;whiteSpace=wrap;html=1;fillColor=#ffcccc;strokeColor=#cc0000;fontStyle=1" parent="1" vertex="1">
          <mxGeometry x="100" y="100" width="120" height="80" as="geometry" />
        </mxCell>
        <mxCell id="cdn_asia" value="CDN&#xa;Азия" style="ellipse;whiteSpace=wrap;html=1;fillColor=#ffcccc;strokeColor=#cc0000;fontStyle=1" parent="1" vertex="1">
          <mxGeometry x="100" y="220" width="120" height="80" as="geometry" />
        </mxCell>
        <mxCell id="cdn_us" value="CDN&#xa;США" style="ellipse;whiteSpace=wrap;html=1;fillColor=#ffcccc;strokeColor=#cc0000;fontStyle=1" parent="1" vertex="1">
          <mxGeometry x="100" y="340" width="120" height="80" as="geometry" />
        </mxCell>
        <mxCell id="users_eu" value="Пользователи&#xa;Европа" style="shape=actor;whiteSpace=wrap;html=1;" parent="1" vertex="1">
          <mxGeometry x="20" y="110" width="40" height="60" as="geometry" />
        </mxCell>
        <mxCell id="users_asia" value="Пользователи&#xa;Азия" style="shape=actor;whiteSpace=wrap;html=1;" parent="1" vertex="1">
          <mxGeometry x="20" y="230" width="40" height="60" as="geometry" />
        </mxCell>
        <mxCell id="users_us" value="Пользователи&#xa;США" style="shape=actor;whiteSpace=wrap;html=1;" parent="1" vertex="1">
          <mxGeometry x="20" y="350" width="40" height="60" as="geometry" />
        </mxCell>
        <mxCell id="nginx" value="nginx&#xa;(API Gateway)" style="rounded=1;whiteSpace=wrap;html=1;fillColor=#ffe6cc;strokeColor=#d79b00;fontStyle=1" parent="1" vertex="1">
          <mxGeometry x="300" y="550" width="120" height="60" as="geometry" />
        </mxCell>
        <mxCell id="consul" value="consul&#xa;(Service Discovery)" style="rounded=1;whiteSpace=wrap;html=1;fillColor=#f5f5f5;strokeColor=#666666;fontColor=#333333;" parent="1" vertex="1">
          <mxGeometry x="300" y="380" width="120" height="60" as="geometry" />
        </mxCell>
        <mxCell id="api1" value="pymongo-api-1" style="rounded=1;whiteSpace=wrap;html=1;fillColor=#dae8fc;strokeColor=#6c8ebf;" parent="1" vertex="1">
          <mxGeometry x="500" y="480" width="120" height="60" as="geometry" />
        </mxCell>
        <mxCell id="api2" value="pymongo-api-2" style="rounded=1;whiteSpace=wrap;html=1;fillColor=#dae8fc;strokeColor=#6c8ebf;" parent="1" vertex="1">
          <mxGeometry x="500" y="560" width="120" height="60" as="geometry" />
        </mxCell>
        <mxCell id="api3" value="pymongo-api-3" style="rounded=1;whiteSpace=wrap;html=1;fillColor=#dae8fc;strokeColor=#6c8ebf;" parent="1" vertex="1">
          <mxGeometry x="500" y="640" width="120" height="60" as="geometry" />
        </mxCell>
        <mxCell id="redis" value="redis&#xa;(Cache)" style="shape=cylinder3;whiteSpace=wrap;html=1;boundedLbl=1;backgroundOutline=1;size=15;fillColor=#f8cecc;strokeColor=#b85450;" parent="1" vertex="1">
          <mxGeometry x="520" y="320" width="80" height="100" as="geometry" />
        </mxCell>
        <mxCell id="mongos" value="mongos_router&#xa;(Router)" style="rounded=1;whiteSpace=wrap;html=1;fillColor=#fff2cc;strokeColor=#d6b656;" parent="1" vertex="1">
          <mxGeometry x="700" y="560" width="120" height="60" as="geometry" />
        </mxCell>
        <mxCell id="config" value="configSrv&#xa;(Config Server)" style="shape=cylinder3;whiteSpace=wrap;html=1;boundedLbl=1;backgroundOutline=1;size=15;fillColor=#e1d5e7;strokeColor=#9673a6;" parent="1" vertex="1">
          <mxGeometry x="720" y="380" width="80" height="100" as="geometry" />
        </mxCell>
        <mxCell id="shard1_group" value="Replica Set: shard1" style="rounded=1;whiteSpace=wrap;html=1;fillColor=#d5e8d4;strokeColor=#82b366;dashed=1;verticalAlign=top;align=center;" parent="1" vertex="1">
          <mxGeometry x="900" y="320" width="300" height="160" as="geometry" />
        </mxCell>
        <mxCell id="shard1-1" value="shard1-1&#xa;(PRIMARY)" style="shape=cylinder3;whiteSpace=wrap;html=1;boundedLbl=1;backgroundOutline=1;size=15;fillColor=#d5e8d4;strokeColor=#82b366;fontStyle=1;fontSize=10;" parent="1" vertex="1">
          <mxGeometry x="920" y="350" width="70" height="80" as="geometry" />
        </mxCell>
        <mxCell id="shard1-2" value="shard1-2&#xa;(SECONDARY)" style="shape=cylinder3;whiteSpace=wrap;html=1;boundedLbl=1;backgroundOutline=1;size=15;fillColor=#d5e8d4;strokeColor=#82b366;fontSize=10;" parent="1" vertex="1">
          <mxGeometry x="1010" y="350" width="70" height="80" as="geometry" />
        </mxCell>
        <mxCell id="shard1-3" value="shard1-3&#xa;(SECONDARY)" style="shape=cylinder3;whiteSpace=wrap;html=1;boundedLbl=1;backgroundOutline=1;size=15;fillColor=#d5e8d4;strokeColor=#82b366;fontSize=10;" parent="1" vertex="1">
          <mxGeometry x="1100" y="350" width="70" height="80" as="geometry" />
        </mxCell>
        <mxCell id="shard2_group" value="Replica Set: shard2" style="rounded=1;whiteSpace=wrap;html=1;fillColor=#d5e8d4;strokeColor=#82b366;dashed=1;verticalAlign=top;align=center;" parent="1" vertex="1">
          <mxGeometry x="900" y="600" width="300" height="160" as="geometry" />
        </mxCell>
        <mxCell id="shard2-1" value="shard2-1&#xa;(PRIMARY)" style="shape=cylinder3;whiteSpace=wrap;html=1;boundedLbl=1;backgroundOutline=1;size=15;fillColor=#d5e8d4;strokeColor=#82b366;fontStyle=1;fontSize=10;" parent="1" vertex="1">
          <mxGeometry x="920" y="630" width="70" height="80" as="geometry" />
        </mxCell>
        <mxCell id="shard2-2" value="shard2-2&#xa;(SECONDARY)" style="shape=cylinder3;whiteSpace=wrap;html=1;boundedLbl=1;backgroundOutline=1;size=15;fillColor=#d5e8d4;strokeColor=#82b366;fontSize=10;" parent="1" vertex="1">
          <mxGeometry x="1010" y="630" width="70" height="80" as="geometry" />
        </mxCell>
        <mxCell id="shard2-3" value="shard2-3&#xa;(SECONDARY)" style="shape=cylinder3;whiteSpace=wrap;html=1;boundedLbl=1;backgroundOutline=1;size=15;fillColor=#d5e8d4;strokeColor=#82b366;fontSize=10;" parent="1" vertex="1">
          <mxGeometry x="1100" y="630" width="70" height="80" as="geometry" />
        </mxCell>
        <mxCell id="static" value="Статический&#xa;контент" style="shape=note;whiteSpace=wrap;html=1;backgroundOutline=1;darkOpacity=0.05;fillColor=#fff2cc;strokeColor=#d6b656;" parent="1" vertex="1">
          <mxGeometry x="300" y="720" width="120" height="80" as="geometry" />
        </mxCell>
        <mxCell id="conn_user_eu" style="edgeStyle=orthogonalEdgeStyle;rounded=0;orthogonalLoop=1;jettySize=auto;html=1;exitX=1;exitY=0.5;exitDx=0;exitDy=0;exitPerimeter=0;entryX=0;entryY=0.5;entryDx=0;entryDy=0;endArrow=classic;endFill=1;strokeColor=#cc0000;strokeWidth=2;" parent="1" source="users_eu" target="cdn_eu" edge="1">
          <mxGeometry relative="1" as="geometry" />
        </mxCell>
        <mxCell id="conn_user_asia" style="edgeStyle=orthogonalEdgeStyle;rounded=0;orthogonalLoop=1;jettySize=auto;html=1;exitX=1;exitY=0.5;exitDx=0;exitDy=0;exitPerimeter=0;entryX=0;entryY=0.5;entryDx=0;entryDy=0;endArrow=classic;endFill=1;strokeColor=#cc0000;strokeWidth=2;" parent="1" source="users_asia" target="cdn_asia" edge="1">
          <mxGeometry relative="1" as="geometry" />
        </mxCell>
        <mxCell id="conn_user_us" style="edgeStyle=orthogonalEdgeStyle;rounded=0;orthogonalLoop=1;jettySize=auto;html=1;exitX=1;exitY=0.5;exitDx=0;exitDy=0;exitPerimeter=0;entryX=0;entryY=0.5;entryDx=0;entryDy=0;endArrow=classic;endFill=1;strokeColor=#cc0000;strokeWidth=2;" parent="1" source="users_us" target="cdn_us" edge="1">
          <mxGeometry relative="1" as="geometry" />
        </mxCell>
        <mxCell id="conn_cdn_eu_nginx" style="edgeStyle=orthogonalEdgeStyle;rounded=0;orthogonalLoop=1;jettySize=auto;html=1;exitX=1;exitY=0.5;exitDx=0;exitDy=0;entryX=0;entryY=0.25;entryDx=0;entryDy=0;endArrow=classic;endFill=1;strokeColor=#d79b00;dashed=1;" parent="1" source="cdn_eu" target="nginx" edge="1">
          <mxGeometry relative="1" as="geometry" />
        </mxCell>
        <mxCell id="conn_cdn_asia_nginx" style="edgeStyle=orthogonalEdgeStyle;rounded=0;orthogonalLoop=1;jettySize=auto;html=1;exitX=1;exitY=0.5;exitDx=0;exitDy=0;entryX=0;entryY=0.5;entryDx=0;entryDy=0;endArrow=classic;endFill=1;strokeColor=#d79b00;dashed=1;" parent="1" source="cdn_asia" target="nginx" edge="1">
          <mxGeometry relative="1" as="geometry" />
        </mxCell>
        <mxCell id="conn_cdn_us_nginx" style="edgeStyle=orthogonalEdgeStyle;rounded=0;orthogonalLoop=1;jettySize=auto;html=1;exitX=1;exitY=0.5;exitDx=0;exitDy=0;entryX=0;entryY=0.75;entryDx=0;entryDy=0;endArrow=classic;endFill=1;strokeColor=#d79b00;dashed=1;" parent="1" source="cdn_us" target="nginx" edge="1">
          <mxGeometry relative="1" as="geometry" />
        </mxCell>
        <mxCell id="conn_cdn_eu_static" style="edgeStyle=orthogonalEdgeStyle;rounded=0;orthogonalLoop=1;jettySize=auto;html=1;exitX=0.5;exitY=1;exitDx=0;exitDy=0;entryX=0.5;entryY=0;entryDx=0;entryDy=0;entryPerimeter=0;endArrow=classic;endFill=1;strokeColor=#d6b656;dashed=1;" parent="1" source="cdn_eu" target="static" edge="1">
          <mxGeometry relative="1" as="geometry" />
        </mxCell>
        <mxCell id="conn_cdn_asia_static" style="edgeStyle=orthogonalEdgeStyle;rounded=0;orthogonalLoop=1;jettySize=auto;html=1;exitX=0.5;exitY=1;exitDx=0;exitDy=0;entryX=0.5;entryY=0;entryDx=0;entryDy=0;entryPerimeter=0;endArrow=classic;endFill=1;strokeColor=#d6b656;dashed=1;" parent="1" source="cdn_asia" target="static" edge="1">
          <mxGeometry relative="1" as="geometry" />
        </mxCell>
        <mxCell id="conn_cdn_us_static" style="edgeStyle=orthogonalEdgeStyle;rounded=0;orthogonalLoop=1;jettySize=auto;html=1;exitX=0.5;exitY=1;exitDx=0;exitDy=0;entryX=0.5;entryY=0;entryDx=0;entryDy=0;entryPerimeter=0;endArrow=classic;endFill=1;strokeColor=#d6b656;dashed=1;" parent="1" source="cdn_us" target="static" edge="1">
          <mxGeometry relative="1" as="geometry" />
        </mxCell>
        <mxCell id="conn_nginx_api1" style="edgeStyle=orthogonalEdgeStyle;rounded=0;orthogonalLoop=1;jettySize=auto;html=1;exitX=1;exitY=0.25;exitDx=0;exitDy=0;entryX=0;entryY=0.5;entryDx=0;entryDy=0;endArrow=classic;endFill=1;strokeColor=#d79b00;" parent="1" source="nginx" target="api1" edge="1">
          <mxGeometry relative="1" as="geometry" />
        </mxCell>
        <mxCell id="conn_nginx_api2" style="edgeStyle=orthogonalEdgeStyle;rounded=0;orthogonalLoop=1;jettySize=auto;html=1;exitX=1;exitY=0.5;exitDx=0;exitDy=0;entryX=0;entryY=0.5;entryDx=0;entryDy=0;endArrow=classic;endFill=1;strokeColor=#d79b00;" parent="1" source="nginx" target="api2" edge="1">
          <mxGeometry relative="1" as="geometry" />
        </mxCell>
        <mxCell id="conn_nginx_api3" style="edgeStyle=orthogonalEdgeStyle;rounded=0;orthogonalLoop=1;jettySize=auto;html=1;exitX=1;exitY=0.75;exitDx=0;exitDy=0;entryX=0;entryY=0.5;entryDx=0;entryDy=0;endArrow=classic;endFill=1;strokeColor=#d79b00;" parent="1" source="nginx" target="api3" edge="1">
          <mxGeometry relative="1" as="geometry" />
        </mxCell>
        <mxCell id="conn_consul_api1" style="edgeStyle=orthogonalEdgeStyle;rounded=0;orthogonalLoop=1;jettySize=auto;html=1;exitX=1;exitY=0.5;exitDx=0;exitDy=0;entryX=0.5;entryY=0;entryDx=0;entryDy=0;endArrow=classic;endFill=1;dashed=1;strokeColor=#666666;" parent="1" source="consul" target="api1" edge="1">
          <mxGeometry relative="1" as="geometry" />
        </mxCell>
        <mxCell id="conn_consul_api2" style="edgeStyle=orthogonalEdgeStyle;rounded=0;orthogonalLoop=1;jettySize=auto;html=1;exitX=1;exitY=0.5;exitDx=0;exitDy=0;entryX=0.5;entryY=0;entryDx=0;entryDy=0;endArrow=classic;endFill=1;dashed=1;strokeColor=#666666;" parent="1" source="consul" target="api2" edge="1">
          <mxGeometry relative="1" as="geometry" />
        </mxCell>
        <mxCell id="conn_consul_api3" style="edgeStyle=orthogonalEdgeStyle;rounded=0;orthogonalLoop=1;jettySize=auto;html=1;exitX=1;exitY=0.5;exitDx=0;exitDy=0;entryX=0.5;entryY=0;entryDx=0;entryDy=0;endArrow=classic;endFill=1;dashed=1;strokeColor=#666666;" parent="1" source="consul" target="api3" edge="1">
          <mxGeometry relative="1" as="geometry" />
        </mxCell>
        <mxCell id="conn_api_redis" style="edgeStyle=orthogonalEdgeStyle;rounded=0;orthogonalLoop=1;jettySize=auto;html=1;exitX=0.5;exitY=0;exitDx=0;exitDy=0;entryX=0.5;entryY=1;entryDx=0;entryDy=0;entryPerimeter=0;endArrow=classic;endFill=1;strokeColor=#b85450;" parent="1" source="api2" target="redis" edge="1">
          <mxGeometry relative="1" as="geometry" />
        </mxCell>
        <mxCell id="conn_api1_mongos" style="edgeStyle=orthogonalEdgeStyle;rounded=0;orthogonalLoop=1;jettySize=auto;html=1;exitX=1;exitY=0.5;exitDx=0;exitDy=0;entryX=0;entryY=0.25;entryDx=0;entryDy=0;endArrow=classic;endFill=1;" parent="1" source="api1" target="mongos" edge="1">
          <mxGeometry relative="1" as="geometry" />
        </mxCell>
        <mxCell id="conn_api2_mongos" style="edgeStyle=orthogonalEdgeStyle;rounded=0;orthogonalLoop=1;jettySize=auto;html=1;exitX=1;exitY=0.5;exitDx=0;exitDy=0;entryX=0;entryY=0.5;entryDx=0;entryDy=0;endArrow=classic;endFill=1;" parent="1" source="api2" target="mongos" edge="1">
          <mxGeometry relative="1" as="geometry" />
        </mxCell>
        <mxCell id="conn_api3_mongos" style="edgeStyle=orthogonalEdgeStyle;rounded=0;orthogonalLoop=1;jettySize=auto;html=1;exitX=1;exitY=0.5;exitDx=0;exitDy=0;entryX=0;entryY=0.75;entryDx=0;entryDy=0;endArrow=classic;endFill=1;" parent="1" source="api3" target="mongos" edge="1">
          <mxGeometry relative="1" as="geometry" />
        </mxCell>
        <mxCell id="conn_mongos_config" style="edgeStyle=orthogonalEdgeStyle;rounded=0;orthogonalLoop=1;jettySize=auto;html=1;exitX=0.5;exitY=0;exitDx=0;exitDy=0;entryX=0.5;entryY=1;entryDx=0;entryDy=0;entryPerimeter=0;endArrow=classic;endFill=1;dashed=1;" parent="1" source="mongos" target="config" edge="1">
          <mxGeometry relative="1" as="geometry" />
        </mxCell>
        <mxCell id="conn_mongos_shard1" style="edgeStyle=orthogonalEdgeStyle;rounded=0;orthogonalLoop=1;jettySize=auto;html=1;exitX=1;exitY=0.25;exitDx=0;exitDy=0;entryX=0;entryY=0.5;entryDx=0;entryDy=0;endArrow=classic;endFill=1;" parent="1" source="mongos" target="shard1_group" edge="1">
          <mxGeometry relative="1" as="geometry" />
        </mxCell>
        <mxCell id="conn_mongos_shard2" style="edgeStyle=orthogonalEdgeStyle;rounded=0;orthogonalLoop=1;jettySize=auto;html=1;exitX=1;exitY=0.75;exitDx=0;exitDy=0;entryX=0;entryY=0.5;entryDx=0;entryDy=0;endArrow=classic;endFill=1;" parent="1" source="mongos" target="shard2_group" edge="1">
          <mxGeometry relative="1" as="geometry" />
        </mxCell>
        <mxCell id="repl1_1" style="edgeStyle=orthogonalEdgeStyle;rounded=0;orthogonalLoop=1;jettySize=auto;html=1;exitX=1;exitY=0.5;exitDx=0;exitDy=0;exitPerimeter=0;entryX=0;entryY=0.5;entryDx=0;entryDy=0;entryPerimeter=0;endArrow=classic;endFill=1;dashed=1;strokeColor=#82b366;" parent="1" source="shard1-1" target="shard1-2" edge="1">
          <mxGeometry relative="1" as="geometry" />
        </mxCell>
        <mxCell id="repl1_2" style="edgeStyle=orthogonalEdgeStyle;rounded=0;orthogonalLoop=1;jettySize=auto;html=1;exitX=1;exitY=0.5;exitDx=0;exitDy=0;exitPerimeter=0;entryX=0;entryY=0.5;entryDx=0;entryDy=0;entryPerimeter=0;endArrow=classic;endFill=1;dashed=1;strokeColor=#82b366;" parent="1" source="shard1-2" target="shard1-3" edge="1">
          <mxGeometry relative="1" as="geometry" />
        </mxCell>
        <mxCell id="repl2_1" style="edgeStyle=orthogonalEdgeStyle;rounded=0;orthogonalLoop=1;jettySize=auto;html=1;exitX=1;exitY=0.5;exitDx=0;exitDy=0;exitPerimeter=0;entryX=0;entryY=0.5;entryDx=0;entryDy=0;entryPerimeter=0;endArrow=classic;endFill=1;dashed=1;strokeColor=#82b366;" parent="1" source="shard2-1" target="shard2-2" edge="1">
          <mxGeometry relative="1" as="geometry" />
        </mxCell>
        <mxCell id="repl2_2" style="edgeStyle=orthogonalEdgeStyle;rounded=0;orthogonalLoop=1;jettySize=auto;html=1;exitX=1;exitY=0.5;exitDx=0;exitDy=0;exitPerimeter=0;entryX=0;entryY=0.5;entryDx=0;entryDy=0;entryPerimeter=0;endArrow=classic;endFill=1;dashed=1;strokeColor=#82b366;" parent="1" source="shard2-2" target="shard2-3" edge="1">
          <mxGeometry relative="1" as="geometry" />
        </mxCell>
        <mxCell id="title" value="Схема 5: Итоговая архитектура с CDN" style="text;html=1;strokeColor=none;fillColor=none;align=center;verticalAlign=middle;whiteSpace=wrap;rounded=0;fontSize=18;fontStyle=1" parent="1" vertex="1">
          <mxGeometry x="100" y="20" width="1100" height="40" as="geometry" />
        </mxCell>
        <mxCell id="legend" value="&lt;span style=&quot;white-space: pre;&quot;&gt;&#x9;&lt;/span&gt;ИТОГОВАЯ АРХИТЕКТУРА&lt;br&gt;&lt;br&gt;- CDN в 3 регионах (Европа, Азия, США) для быстрой доставки статики&lt;br&gt;- Пользователи из разных регионов получают контент из ближайшего CDN&lt;br&gt;- CDN кеширует статический контент (изображения, CSS, JS)&lt;br&gt;- Nginx (API Gateway) балансирует нагрузку между API инстансами&lt;br&gt;- Consul отслеживает доступность сервисов&lt;br&gt;- Redis кеширует запросы к MongoDB&lt;br&gt;- MongoDB: 2 шарда с репликацией (3 реплики на каждый)&lt;br&gt;&lt;br&gt;Красные линии - CDN трафик&lt;br&gt;Оранжевые - балансировка API Gateway&lt;br&gt;Серые пунктирные - Service Discovery" style="text;html=1;strokeColor=#666666;fillColor=#f5f5f5;align=left;verticalAlign=top;whiteSpace=wrap;rounded=1;fontSize=11;fontColor=#333333;" parent="1" vertex="1">
          <mxGeometry x="1300" y="320" width="400" height="200" as="geometry" />
        </mxCell>
        <mxCell id="summary" value="&lt;span style=&quot;white-space: pre;&quot;&gt;&#x9;&lt;/span&gt;КОМПОНЕНТЫ:&lt;br&gt;&lt;br&gt;▪ 3 CDN ноды&lt;br&gt;▪ 1 API Gateway (Nginx)&lt;br&gt;▪ 1 Service Discovery (Consul)&lt;br&gt;▪ 3 API инстанса (pymongo-api)&lt;br&gt;▪ 1 Redis (кеш)&lt;br&gt;▪ 1 Mongos Router&lt;br&gt;▪ 1 Config Server&lt;br&gt;▪ 2 шарда × 3 реплики = 6 MongoDB нод" style="text;html=1;strokeColor=#666666;fillColor=#ffffcc;align=left;verticalAlign=top;whiteSpace=wrap;rounded=1;fontSize=11;fontColor=#333333;fontStyle=1" parent="1" vertex="1">
          <mxGeometry x="1300" y="600" width="240" height="150" as="geometry" />
        </mxCell>
      </root>
    </mxGraphModel>
  </diagram>
</mxfile>
